<svg xmlns="http://www.w3.org/2000/svg" xmlns:xlink="http://www.w3.org/1999/xlink" width="235.614" height="260.231" viewBox="0 0 235.614 260.231">
  <defs>
    <style>
      .cls-1, .cls-4 {
        fill: #fff;
      }
      .cls-1 {
        stroke: #707070;
        opacity: 0;
      }
      .cls-2 {
        clip-path: url(#clip-path);
      }
      .cls-3 {
        fill: #08415c;
      }
      .cls-5 {
        fill: none;
      }
      .cls-6, .cls-8 {
        fill: #e69a28;
      }
      .cls-7, .cls-8 {
        stroke: none;
      }
    </style>
    <clipPath id="clip-path">
      <rect id="Rectangle_4" data-name="Rectangle 4" class="cls-1" width="202" height="146" transform="translate(-0.117 0.288)"/>
    </clipPath>
  </defs>
  <g id="Image" transform="translate(-884.392 -302.769)">
    <g id="Monster" transform="translate(900.117 302.769)">
      <g id="Mask_Group_1" data-name="Mask Group 1" class="cls-2" transform="translate(0 22.943)">
        <circle id="Ellipse_3" data-name="Ellipse 3" class="cls-3" cx="85.5" cy="85.5" r="85.5" transform="translate(16.883 6.288)"/>
      </g>
      <path id="Path_7" data-name="Path 7" class="cls-3" d="M918.987,327.755s-6.583-75.022,50.044-93.248-53.442,12.6,1.416,44.1" transform="translate(-900.05 -229.064)"/>
      <path id="Path_8" data-name="Path 8" class="cls-3" d="M985.5,327.755s6.583-75.022-50.044-93.248,53.442,12.6-1.416,44.1" transform="translate(-799.684 -229.064)"/>
      <path id="Path_9" data-name="Path 9" class="cls-4" d="M947.026,372.838l8.75-28.059,38.016,28.059Z" transform="translate(-903.446 -275.65)"/>
      <path id="Path_10" data-name="Path 10" class="cls-4" d="M993.791,372.838l-8.75-28.059-38.016,28.059Z" transform="translate(-834.327 -275.65)"/>
    </g>
    <g id="Box" transform="translate(884.392 411.947)">
      <g id="Path_3" data-name="Path 3" class="cls-5" transform="matrix(0.259, -0.966, 0.966, 0.259, 0, 119.195)">
        <path class="cls-7" d="M27.875,28.036,123.09,0,99.325,96.476,0,123.09Z"/>
        <path class="cls-8" d="M 111.9916839599609 11.60755157470703 L 34.32350921630859 34.47702789306641 L 11.683837890625 111.6772766113281 L 92.68792724609375 89.97232055664063 L 111.9916839599609 11.60755157470703 M 123.0901565551758 -1.52587890625e-05 L 99.32498931884766 96.47612762451172 L -1.52587890625e-05 123.0901565551758 L 27.87546539306641 28.03605651855469 L 123.0901565551758 -1.52587890625e-05 Z"/>
      </g>
      <g id="Path_4" data-name="Path 4" class="cls-5" transform="matrix(-0.966, 0.259, -0.259, -0.966, 235.614, 119.798)">
        <path class="cls-7" d="M25.546,28.036,120.761,0,96.2,100.656,0,123.377Z"/>
        <path class="cls-8" d="M 109.6958999633789 11.59776306152344 L 32.11204528808594 34.44241333007813 L 11.19313812255859 112.512825012207 L 89.58645629882813 93.99733734130859 L 109.6958999633789 11.59776306152344 M 120.7611083984375 -7.62939453125e-06 L 96.19613647460938 100.6563262939453 L -7.62939453125e-06 123.3766174316406 L 25.54641723632813 28.03606414794922 L 120.7611083984375 -7.62939453125e-06 Z"/>
      </g>
      <path id="Path_5" data-name="Path 5" class="cls-6" d="M2.333,0l96.4,1.877L96.4,61.238,0,59.36Z" transform="translate(33.066 0) rotate(30)"/>
      <path id="Path_6" data-name="Path 6" class="cls-6" d="M2.333,0l96.4,1.877L96.4,61.238,0,59.36Z" transform="translate(114.175 49.366) rotate(-30)"/>
    </g>
  </g>
</svg>